<svg width="29" height="21" viewBox="0 0 29 21" fill="none" xmlns="http://www.w3.org/2000/svg">
<path d="M7.68807 9.90352C7.51831 10.7046 6.99624 11.3885 6.2648 11.7679C5.46272 12.1839 4.50603 12.1839 3.70395 11.7679C2.97251 11.3885 2.45044 10.7046 2.28068 9.90352L2.22182 9.62577C2.0471 8.80128 2.23459 7.94201 2.7374 7.26292L2.83274 7.13417C3.33566 6.45493 4.13464 6.05372 4.98438 6.05372C5.83411 6.05372 6.63309 6.45493 7.13601 7.13417L7.23134 7.26292C7.73416 7.94201 7.92165 8.80128 7.74693 9.62577L7.68807 9.90352Z" fill="#C2CCDE"/>
<path d="M0 17.4649C0 17.9282 0.378694 18.3037 0.845836 18.3037H4.80039C4.99867 16.6449 5.87839 15.1535 7.20422 14.1675C5.44057 13.7109 3.56858 13.8076 1.85085 14.4577C0.736329 14.8795 0 15.9397 0 17.1228V17.4649Z" fill="#C2CCDE"/>
<path d="M28.1542 18.3038H24.1996C24.0014 16.6449 23.1217 15.1536 21.7959 14.1676C23.5595 13.711 25.4315 13.8077 27.1492 14.4578C28.2637 14.8796 29 15.9398 29 17.1229V17.465C29 17.9283 28.6213 18.3038 28.1542 18.3038Z" fill="#C2CCDE"/>
<path d="M21.3119 9.90362C21.4817 10.7047 22.0038 11.3886 22.7352 11.768C23.5373 12.184 24.494 12.184 25.296 11.768C26.0275 11.3886 26.5496 10.7047 26.7193 9.90362L26.7782 9.62586C26.9529 8.80138 26.7654 7.94211 26.2626 7.26302L26.1673 7.13427C25.6643 6.45502 24.8654 6.05382 24.0156 6.05382C23.1659 6.05382 22.3669 6.45502 21.864 7.13426L21.7687 7.26302C21.2658 7.94211 21.0783 8.80138 21.2531 9.62586L21.3119 9.90362Z" fill="#C2CCDE"/>
<path d="M21.6594 21H7.34063C6.53981 21 5.89062 20.3562 5.89062 19.562V19.0196C5.89062 16.966 7.17157 15.1265 9.10813 14.3991C12.5823 13.0942 16.4177 13.0942 19.8919 14.3991C21.8284 15.1265 23.1094 16.966 23.1094 19.0196V19.562C23.1094 20.3562 22.4602 21 21.6594 21Z" fill="#C2CCDE"/>
<path d="M12.2984 9.80084C13.6787 10.5114 15.3213 10.5114 16.7016 9.80084C17.9711 9.14732 18.8787 7.96419 19.175 6.57646L19.2677 6.14212C19.5719 4.71773 19.2461 3.23236 18.3729 2.06189L18.2232 1.86128C17.3499 0.69059 15.9684 0 14.5 0C13.0316 0 11.6501 0.690591 10.7768 1.86128L10.6271 2.06189C9.75389 3.23236 9.42815 4.71773 9.73228 6.14213L9.82502 6.57646C10.1213 7.96419 11.0289 9.14732 12.2984 9.80084Z" fill="#C2CCDE"/>
</svg>
