<svg width="35" height="35" viewBox="0 0 27 31" fill="none" xmlns="http://www.w3.org/2000/svg">
<g id="Vector">
<path fill-rule="evenodd" clip-rule="evenodd" d="M2.04167 13.2692C1.46637 13.2692 1 13.727 1 14.2917V28.9776C1 29.5422 1.46637 30 2.04167 30H24.9583C25.5336 30 26 29.5422 26 28.9776V14.2917C26 13.727 25.5336 13.2692 24.9583 13.2692H2.04167ZM15.2045 23.3077C14.2632 24.2317 12.7368 24.2317 11.7955 23.3077C10.8541 22.3837 10.8541 20.8856 11.7955 19.9615C12.7368 19.0375 14.2632 19.0375 15.2045 19.9615C16.1459 20.8856 16.1459 22.3837 15.2045 23.3077Z" fill="#C2CCDE" fill-opacity="0.25"/>
<path d="M5.82955 13.2692V8.52885C5.82955 4.37078 9.26372 1 13.5 1C17.7363 1 21.1705 4.37078 21.1705 8.52885V13.2692M1 14.2917C1 13.727 1.46637 13.2692 2.04167 13.2692H24.9583C25.5336 13.2692 26 13.727 26 14.2917V28.9776C26 29.5422 25.5336 30 24.9583 30H2.04167C1.46637 30 1 29.5422 1 28.9776V14.2917ZM11.7955 23.3077C12.7368 24.2317 14.2632 24.2317 15.2045 23.3077C16.1459 22.3837 16.1459 20.8856 15.2045 19.9615C14.2632 19.0375 12.7368 19.0375 11.7955 19.9615C10.8541 20.8856 10.8541 22.3837 11.7955 23.3077Z" stroke="#C2CCDE" stroke-linecap="round" stroke-linejoin="round"/>
</g>
</svg>
