<svg width="140" height="149" viewBox="0 0 140 149" fill="none" xmlns="http://www.w3.org/2000/svg">
<g id="No appointment">
<path id="Ellipse 186" d="M140 65.0198C140 105.773 105.851 148.522 70.0558 148.522C34.2607 148.522 0 118.052 0 77.2995C0 36.5465 20.5259 -6.98392 70.0558 0.942068C105.851 0.942068 140 24.2668 140 65.0198Z" fill="#EBE2FE"/>
<g id="Group 25">
<g id="Group 23">
<ellipse id="Ellipse 186_2" cx="68.4174" cy="121.861" rx="39.2" ry="8.88696" fill="#D5CCE9"/>
<path id="Vector 13" d="M90.6957 121.496L92.0348 105.67C88.6762 103.91 84.9412 102.991 81.1497 102.991H80.2261L76.3304 121.739L78.2758 121.478C82.3977 120.924 86.5754 120.93 90.6957 121.496Z" fill="#30315B"/>
<ellipse id="Ellipse 11" cx="95.2918" cy="112.625" rx="7.06208" ry="9.99" transform="rotate(25.8104 95.2918 112.625)" fill="#505178"/>
<path id="Ellipse 9" d="M82.2383 105.297C83.2695 120.035 73.1406 125.391 61.3565 125.391C42.0922 126.946 40.4174 115.811 40.4174 103.264C44.5565 87.5305 50.8869 74.5044 62.5739 74.5044C76.6956 74.5044 82.2383 92.7495 82.2383 105.297Z" fill="#30315B"/>
<path id="Ellipse 13" d="M42.8522 113.583C42.8522 117.55 45.6088 120.887 42.8522 120.887C36.6435 123.444 32.3826 117.55 32.3826 113.583C32.3826 109.616 34.6173 106.4 37.3739 106.4C41.6348 104.452 42.8522 109.616 42.8522 113.583Z" fill="#505178"/>
<g id="Group 3">
<ellipse id="Ellipse 14" cx="96.1536" cy="115.49" rx="3.29146" ry="4.60259" transform="rotate(19.7462 96.1536 115.49)" fill="white"/>
<ellipse id="Ellipse 15" cx="94.6248" cy="108.963" rx="1.41373" ry="1.73997" transform="rotate(16.9492 94.6248 108.963)" fill="white"/>
<ellipse id="Ellipse 16" cx="100.856" cy="110.16" rx="1.26295" ry="1.73998" transform="rotate(18.9738 100.856 110.16)" fill="white"/>
<ellipse id="Ellipse 17" cx="98.2622" cy="108.036" rx="1.64969" ry="2.03039" transform="rotate(13.8684 98.2622 108.036)" fill="white"/>
</g>
<path id="Vector 14" d="M81.6869 98.2435H65.6642C62.097 98.2435 58.5647 97.5402 55.2695 96.1739C51.4709 94.7999 47.8327 93.0018 44.4348 90.8174L41.6895 98.3877C40.8459 100.714 40.3457 103.151 40.2045 105.621C40.0234 108.791 40.4362 111.966 41.4216 114.984L41.8782 116.383L43.9294 109.838C44.2574 108.792 44.9174 107.881 45.8096 107.244C47.9279 105.731 50.8499 106.08 52.5526 108.049L67.4435 125.27L73.635 123.266C75.014 122.82 76.2974 122.12 77.4192 121.202C78.9409 119.957 80.1221 118.347 80.8524 116.521L81.2721 115.472C82.0287 113.58 82.4174 111.562 82.4174 109.525V105.913V102.017L81.6869 98.2435Z" fill="white"/>
<ellipse id="Ellipse 12" cx="54.6696" cy="115.747" rx="13.0174" ry="10.7655" transform="rotate(22.6434 54.6696 115.747)" fill="#30315B"/>
<g id="Group 4">
<ellipse id="Ellipse 10" cx="60.6895" cy="117.864" rx="8.01804" ry="10.8348" transform="rotate(-11.6831 60.6895 117.864)" fill="#505178"/>
<g id="Group 2">
<ellipse id="Ellipse 14_2" cx="61.7217" cy="120.157" rx="4.01739" ry="4.9913" transform="rotate(-6.92212 61.7217 120.157)" fill="white"/>
<ellipse id="Ellipse 15_2" cx="56.4656" cy="115.432" rx="1.58261" ry="1.94783" transform="rotate(-11.0445 56.4656 115.432)" fill="white"/>
<ellipse id="Ellipse 16_2" cx="64.0134" cy="112.754" rx="1.58261" ry="1.94783" transform="rotate(-11.0445 64.0134 112.754)" fill="white"/>
<ellipse id="Ellipse 17_2" cx="59.7089" cy="112.292" rx="1.84676" ry="2.27294" transform="rotate(-11.0445 59.7089 112.292)" fill="white"/>
</g>
</g>
<path id="Vector 28" d="M41.6099 80.1194L52.4407 74.3973L55.7434 88.3731L44.2482 92.7008L37.1607 99.8046C36.0369 100.931 34.3672 101.314 32.8649 100.79C31.5223 100.322 30.5137 99.198 30.1933 97.8127L29.8861 96.4845C29.4491 94.5953 29.8632 92.6094 31.0189 91.0523L34.7901 85.9714C36.5977 83.5358 38.9281 81.5362 41.6099 80.1194Z" fill="url(#paint0_linear_23_797)"/>
<path id="Vector 29" d="M103.219 72.3983L101.6 71.9602C100.104 71.5553 98.5211 71.6043 97.053 72.1009L86.3489 75.7218L72.313 79.0087L80.025 93.7391L93.9066 87.0435L103.275 80.8114C104.206 80.1919 104.93 79.3078 105.354 78.273L105.702 77.4251C106.142 76.3511 106.058 75.1335 105.476 74.1298C104.981 73.2779 104.17 72.6557 103.219 72.3983Z" fill="url(#paint1_linear_23_797)"/>
</g>
<g id="Group 24">
<ellipse id="Ellipse 2" cx="91.7913" cy="32.4711" rx="8.52174" ry="9.61739" fill="#30315B"/>
<path id="Union" fill-rule="evenodd" clip-rule="evenodd" d="M63.1032 23.1405C62.7533 23.1625 62.4034 23.1845 62.0513 23.1895C62.1963 23.2473 62.4066 23.2849 62.5061 23.2907C62.5506 23.2933 62.5937 23.3898 62.6285 23.5061C42.5393 23.2551 35.6696 43.944 35.6696 58.4015C35.6696 73.7982 51.1146 79.5841 66.713 79.5841C97.0261 80.6798 97.2696 71.0624 95.3217 51.5841C95.3217 41.7781 90.0445 33.204 82.1823 28.2702C82.6161 28.0286 83.0542 27.7877 83.5311 27.597C83.8198 27.4815 84.1091 27.2849 84.3946 27.0909C84.576 26.9676 84.7559 26.8454 84.9331 26.7457C85.5261 26.4122 85.899 25.9226 86.1348 25.2936C86.3037 24.8434 86.5021 21.9888 85.6898 21.9888C85.4857 21.9888 85.1816 22.3768 84.9448 22.6788C84.8421 22.8099 84.752 22.9248 84.6883 22.9847C84.3549 23.2985 84.0286 23.2954 83.6254 23.2916C83.5801 23.2912 83.5339 23.2907 83.4866 23.2907C83.4395 23.2907 83.3918 23.2908 83.3434 23.2909C82.4909 23.2922 81.4421 23.2939 80.7103 22.8901C79.9797 22.4871 78.8665 22.5656 78.0731 22.6676C77.9902 22.6783 77.8841 22.6894 77.7628 22.7021C77.1649 22.7648 76.1982 22.8663 75.8291 23.1399C75.9394 23.0355 76.1244 22.8559 76.2038 22.7677C76.3643 22.5894 76.3447 22.1136 76.3318 21.7978C76.3288 21.725 76.3262 21.6607 76.3262 21.6105C76.3262 20.6064 76.1424 19.5416 75.4248 18.7842C75.3811 18.738 75.3371 18.6908 75.2925 18.6431C74.8342 18.1524 74.3259 17.608 73.6222 17.5824C73.5357 17.5793 73.4352 17.5704 73.327 17.5609C72.8944 17.5227 72.34 17.4737 72.0755 17.7382C71.9798 17.834 71.9515 17.9344 71.9239 18.0322C71.8882 18.159 71.8537 18.2814 71.675 18.3836C71.6063 18.4228 71.5525 18.5125 71.4965 18.6059C71.444 18.6935 71.3895 18.7844 71.3189 18.8398C71.2147 18.9217 71.1215 19.0378 71.0288 19.1534C70.9633 19.235 70.898 19.3163 70.8293 19.3851C70.6536 19.5608 70.4896 19.7497 70.3257 19.9387C70.1618 20.1276 69.9979 20.3165 69.8223 20.4922C69.462 20.8525 69.0702 21.3042 68.7596 21.6995C68.1769 22.4412 67.4032 22.79 66.4674 22.79C66.1039 22.79 65.7447 22.8651 65.3855 22.9402C65.0262 23.0153 64.6669 23.0904 64.3031 23.0904C63.9007 23.0904 63.5019 23.1155 63.1032 23.1405Z" fill="white"/>
<path id="Ellipse 1" d="M54.5391 29.0624C55.2343 35.232 44.6783 43.0624 43.0957 42.0885C36.5067 42.0885 31.1652 36.856 31.1652 30.4015C31.1652 23.947 36.5067 18.7145 43.0957 18.7145C49.6847 18.7145 53.5652 20.4189 54.5391 29.0624Z" fill="#30315B"/>
<path id="Ellipse 5" d="M79.4956 60.8363C79.4956 61.7103 78.1748 63.1493 76.6956 63.1493C75.2165 63.1493 73.8956 61.7103 73.8956 60.8363C73.8956 59.9622 75.2165 59.6189 76.6956 59.6189C78.1748 59.6189 79.4956 59.9622 79.4956 60.8363Z" fill="#505178"/>
<g id="Group 1">
<path id="Ellipse 6" d="M70.3652 55.2854C71.8261 62.1028 66.0848 67.0941 60.5044 67.0941C50.0348 69.0419 48.6957 65.7263 48.6957 60.8854C48.6957 56.0445 54.9239 49.5637 60.5044 49.5637C66.0848 49.5637 70.3652 50.4445 70.3652 55.2854Z" fill="#505178"/>
<path id="Ellipse 7" d="M93.9826 61.8593C93.0637 66.2419 90.7959 64.9028 87.1652 64.9028C83.5345 64.9028 80.5913 61.9595 80.5913 58.3289C80.5913 54.6982 82.4389 50.6593 86.0696 50.6593C89.7002 50.6593 95.5652 54.3115 93.9826 61.8593Z" fill="#505178"/>
<g id="Vector 11">
<path d="M64.432 43.5434C64.1381 43.6819 63.8726 43.8532 63.5561 43.9236C63.5615 43.924 63.5668 43.9242 63.5723 43.9242C63.6651 43.9242 63.7109 43.9957 63.7916 44.025C63.8819 44.0578 63.9273 44.1466 64.0007 44.1996C64.0785 44.2558 64.1401 44.3199 64.2108 44.3854C64.2978 44.466 64.4075 44.5138 64.489 44.6001C64.6809 44.8033 64.8412 45.037 65.0332 45.2405C65.247 45.467 65.4909 45.7068 65.752 45.8771C65.8627 45.9493 65.9884 46.0363 66.0843 46.1254C66.1923 46.2258 66.3019 46.3046 66.4372 46.3644C66.6032 46.4378 66.7461 46.5588 66.917 46.6221C67.0875 46.6852 67.2412 46.7722 67.4155 46.8274C67.5725 46.8772 67.7384 46.9015 67.8954 46.9525C68.1239 47.0269 68.3386 47.0832 68.5806 47.0832C68.6289 47.0832 68.7948 47.1093 68.827 47.0664C68.8522 47.0329 68.9388 47.014 68.9754 46.9899C69.0577 46.9357 69.1286 46.8832 69.1864 46.8022C69.2974 46.6469 69.4332 46.5156 69.5038 46.3364C69.5773 46.1498 69.5592 45.9663 69.571 45.7679C69.5815 45.5911 69.5626 45.4214 69.5626 45.2479C69.5626 44.9483 69.4716 44.6021 69.3367 44.3378C69.2621 44.1916 69.162 44.065 69.0837 43.9233C69.0194 43.8069 68.8842 43.6196 68.757 43.5658C68.6582 43.5239 68.5837 43.4754 68.4909 43.4164C68.3674 43.3378 68.2168 43.3075 68.0839 43.2428C67.7601 43.0851 67.422 42.9788 67.0757 42.8899C66.8485 42.8316 66.6416 42.8516 66.4167 42.8787C66.2012 42.9046 66.0169 42.9486 65.8062 43.0187C65.34 43.1739 64.8765 43.3339 64.432 43.5434Z" fill="#505178"/>
<path d="M63.463 43.941C63.8217 43.8865 64.1097 43.6952 64.432 43.5434C64.8765 43.3339 65.34 43.1739 65.8062 43.0187C66.0169 42.9486 66.2012 42.9046 66.4167 42.8787C66.6416 42.8516 66.8485 42.8316 67.0757 42.8899C67.422 42.9788 67.7601 43.0851 68.0839 43.2428C68.2168 43.3075 68.3674 43.3378 68.4909 43.4164C68.5837 43.4754 68.6582 43.5239 68.757 43.5658C68.8842 43.6196 69.0194 43.8069 69.0837 43.9233C69.162 44.065 69.2621 44.1916 69.3367 44.3378C69.4716 44.6021 69.5626 44.9483 69.5626 45.2479C69.5626 45.4214 69.5815 45.5911 69.571 45.7679C69.5592 45.9663 69.5773 46.1498 69.5038 46.3364C69.4332 46.5156 69.2974 46.6469 69.1864 46.8022C69.1286 46.8832 69.0577 46.9357 68.9754 46.9899C68.9388 47.014 68.8522 47.0329 68.827 47.0664C68.7948 47.1093 68.6289 47.0832 68.5806 47.0832C68.3386 47.0832 68.1239 47.0269 67.8954 46.9525C67.7384 46.9015 67.5725 46.8772 67.4155 46.8274C67.2412 46.7722 67.0875 46.6852 66.917 46.6221C66.7461 46.5588 66.6032 46.4378 66.4372 46.3644C66.3019 46.3046 66.1923 46.2258 66.0843 46.1254C65.9884 46.0363 65.8627 45.9493 65.752 45.8771C65.4909 45.7068 65.247 45.467 65.0332 45.2405C64.8412 45.037 64.6809 44.8033 64.489 44.6001C64.4075 44.5138 64.2978 44.466 64.2108 44.3854C64.1401 44.3199 64.0785 44.2558 64.0007 44.1996C63.9273 44.1466 63.8819 44.0578 63.7916 44.025C63.7109 43.9957 63.6651 43.9242 63.5723 43.9242C63.5052 43.9242 63.4434 43.8906 63.379 43.8906" stroke="#505178" stroke-width="3" stroke-linecap="round"/>
</g>
<path id="Vector 12" d="M81.8625 47.1467C81.8868 47.2735 81.9406 47.3889 81.9466 47.5201C82.0507 47.5722 82.0933 47.5707 82.1818 47.6546C82.539 47.993 83.0214 48.0819 83.5018 48.041C83.8109 48.0147 84.0054 47.7555 84.2822 47.6415C84.4014 47.5924 84.4985 47.4398 84.5847 47.3465C84.7945 47.1191 85.0364 46.9188 85.24 46.6874C85.329 46.5863 85.4078 46.4968 85.5126 46.4111C85.6566 46.2932 85.7669 46.1433 85.9084 46.0246C85.9938 45.953 86.0407 45.8245 86.1343 45.7521C86.2827 45.6371 86.4057 45.5695 86.5936 45.528C86.7094 45.5024 86.8278 45.4869 86.9464 45.4869C86.959 45.4869 86.9015 45.4634 86.8848 45.4543C86.8181 45.4179 86.7481 45.4112 86.6823 45.3656C86.5242 45.2562 86.3722 45.1332 86.2227 45.0123L86.2118 45.0034C86.0669 44.8862 85.9256 44.751 85.7553 44.6711C85.6927 44.6417 85.6354 44.6434 85.5723 44.6262C85.3907 44.5767 85.2084 44.5205 85.0234 44.4881C84.7294 44.4365 84.4504 44.3367 84.1468 44.3873C83.99 44.4134 83.8436 44.4283 83.6848 44.4283C83.5665 44.4283 83.4651 44.4298 83.3524 44.4703C83.0074 44.5946 82.734 44.9014 82.4973 45.1677C82.3008 45.3888 82.0851 45.6108 81.9466 45.8725C81.7979 46.1533 81.8289 46.4556 81.8289 46.764C81.8289 46.8959 81.8376 47.0166 81.8625 47.1467Z" fill="#505178" stroke="#505178" stroke-linecap="round"/>
</g>
<g id="Left">
<path id="Ellipse 183" d="M61.1202 64.8739C64.5795 63.7168 66.4458 59.9744 65.2887 56.515C64.7652 53.2 64.6409 62.087 60.522 63.0856C54.5157 64.5419 51.6042 57.2459 52.7613 60.7053C53.9184 64.1646 57.6608 66.031 61.1202 64.8739Z" fill="#30315B"/>
</g>
<g id="Left_2">
<path id="Ellipse 183_2" d="M86.2447 62.2635C88.5444 63.4908 91.4036 62.6215 92.6309 60.3218C94.0945 58.4218 89.4205 62.7222 86.8791 61.0747C83.1731 58.6723 85.5302 53.5776 84.3029 55.8773C83.0756 58.177 83.9449 61.0362 86.2447 62.2635Z" fill="#30315B"/>
</g>
</g>
<ellipse id="Ellipse 196" cx="75.3565" cy="71.3391" rx="4.01739" ry="1.94783" fill="#30315B"/>
<path id="Vector 30" d="M107.58 73.287L94.2261 74.3844C94.7767 80.3387 96.0253 86.2076 97.9461 91.8704L98.0019 92.0348C102.886 91.0647 107.614 89.3639 112 87.0049L107.58 73.287Z" fill="white" stroke="#30315B"/>
<path id="Vector 31" d="M97.2736 79.4045C97.0834 79.3807 97.6144 79.0431 97.6422 79.0124C97.8198 78.8167 97.8493 78.5059 97.9466 78.275C98.0323 78.0714 97.745 78.0399 97.73 78.1112C97.6994 78.2567 98.6588 78.6757 98.8215 78.714C99.0981 78.779 99.2433 78.4937 99.3218 78.275C99.4912 77.8031 99.4857 78.0928 99.4857 78.4506C99.4857 78.5934 99.3876 79.1173 99.6144 79.1821C100.031 79.3013 100.155 78.6457 100.211 78.3453C100.264 78.0597 100.23 78.2345 100.404 78.1346C100.477 78.0933 100.416 77.5401 100.501 77.9093C100.547 78.1075 100.776 79.2586 101.124 78.7725C101.501 78.2472 101.528 77.574 101.774 76.9993C101.861 76.7965 102.226 77.0165 102.347 77.0461C102.824 77.1617 103.293 77.1193 103.775 77.1397C103.99 77.1488 104.14 77.2629 104.34 77.3153C104.662 77.3995 104.922 77.2368 105.183 77.0724C105.322 76.9849 105.4 76.647 105.575 76.6774C105.797 76.7161 105.874 76.929 106.122 76.929" stroke="#30315B" stroke-linecap="round"/>
<path id="Vector 32" d="M97.9056 82.7753C98.4068 82.6427 98.872 82.515 99.392 82.5822C99.5346 82.6007 99.5847 82.613 99.591 82.4593C99.5997 82.2471 99.6156 82.2487 99.8251 82.2487C100.015 82.2487 100.186 82.3439 100.334 82.1843C100.438 82.0723 100.628 81.5418 100.837 81.6254C101.151 81.7508 101.271 81.88 101.604 81.88C101.834 81.88 102.124 82.0209 102.341 81.9736C102.572 81.9235 102.664 81.722 102.915 81.722C103.313 81.722 103.489 81.8517 103.489 81.3182C103.489 81.1052 103.485 80.9143 103.439 80.7066C103.437 80.7004 103.525 80.9848 103.532 81.0021C103.661 81.3154 103.966 81.7915 104.372 81.5464C104.644 81.3821 104.758 81.0556 104.899 80.7915C104.93 80.7336 104.98 80.682 105.048 80.6715C105.287 80.6347 105.267 80.6933 105.478 80.5457C105.652 80.4242 106.002 81.0628 106.277 80.8149C106.435 80.6729 106.504 80.4306 106.596 80.2472" stroke="#30315B" stroke-linecap="round"/>
</g>
</g>
<defs>
<linearGradient id="paint0_linear_23_797" x1="49.0609" y1="83.0261" x2="31.4087" y2="98.6087" gradientUnits="userSpaceOnUse">
<stop stop-color="#30315B"/>
<stop offset="1" stop-color="#505178"/>
</linearGradient>
<linearGradient id="paint1_linear_23_797" x1="80.1793" y1="85.3391" x2="104.332" y2="72.9186" gradientUnits="userSpaceOnUse">
<stop stop-color="#30315B"/>
<stop offset="1" stop-color="#505178"/>
</linearGradient>
</defs>
</svg>
