<svg width="35" height="35" viewBox="0 0 64 57" fill="none" xmlns="http://www.w3.org/2000/svg">
<path fill-rule="evenodd" clip-rule="evenodd" d="M2.83333 26C1.82081 26 1 26.8208 1 27.8333V54.1667C1 55.1792 1.82081 56 2.83333 56H43.1667C44.1792 56 45 55.1792 45 54.1667V27.8333C45 26.8208 44.1792 26 43.1667 26H2.83333ZM26 44C24.3431 45.6569 21.6569 45.6569 20 44C18.3431 42.3431 18.3431 39.6569 20 38C21.6569 36.3431 24.3431 36.3431 26 38C27.6569 39.6569 27.6569 42.3431 26 44Z" fill="#C2CCDE" fill-opacity="0.25"/>
<path d="M36.5 26V14.5C36.5 7.04416 42.5442 1 50 1C57.4558 1 63.5 7.04416 63.5 14.5V23M1 27.8333C1 26.8208 1.82081 26 2.83333 26H43.1667C44.1792 26 45 26.8208 45 27.8333V54.1667C45 55.1792 44.1792 56 43.1667 56H2.83333C1.82081 56 1 55.1792 1 54.1667V27.8333ZM20 44C21.6569 45.6569 24.3431 45.6569 26 44C27.6569 42.3431 27.6569 39.6569 26 38C24.3431 36.3431 21.6569 36.3431 20 38C18.3431 39.6569 18.3431 42.3431 20 44Z" stroke="#C2CCDE" stroke-width="2px" stroke-linecap="round" stroke-linejoin="round"/>
</svg>
